HIERARCHY
ROOT ui
{
	 OFFSET 0 0 0
	 CHANNELS 3 XPosition YPosition Z Position
	 EndSite
	 {
	 OFFSET 0 -1 0
	 }
}
ROOT li
{
	 OFFSET 0 0 0
	 CHANNELS 3 XPosition YPosition Z Position
	 EndSite
	 {
	 OFFSET 0 -1 0
	 }
}
ROOT ul
{
	 OFFSET 0 0 0
	 CHANNELS 3 XPosition YPosition Z Position
	 EndSite
	 {
	 OFFSET 0 -1 0
	 }
}
ROOT ll
{
	 OFFSET 0 0 0
	 CHANNELS 3 XPosition YPosition Z Position
	 EndSite
	 {
	 OFFSET 0 -1 0
	 }
}
ROOT tt
{
	 OFFSET 0 0 0
	 CHANNELS 3 XPosition YPosition Z Position
	 EndSite
	 {
	 OFFSET 0 -1 0
	 }
}
ROOT tb
{
	 OFFSET 0 0 0
	 CHANNELS 3 XPosition YPosition Z Position
	 EndSite
	 {
	 OFFSET 0 -1 0
	 }
}
ROOT td
{
	 OFFSET 0 0 0
	 CHANNELS 3 XPosition YPosition Z Position
	 EndSite
	 {
	 OFFSET 0 -1 0
	 }
}
ROOT v
{
	 OFFSET 0 0 0
	 CHANNELS 3 XPosition YPosition Z Position
	 EndSite
	 {
	 OFFSET 0 -1 0
	 }
}
ROOT bn
{
	 OFFSET 0 0 0
	 CHANNELS 3 XPosition YPosition Z Position
	 EndSite
	 {
	 OFFSET 0 -1 0
	 }
}
MOTION
Frames: 27
Frame Time: 0.002
7.041209936141968E-4	0.0014228479862213135	0		0.4961189575195312	-2.41392822265625	0		-1.04800341796875	0.08239522552490235	0		-0.6842556762695312	-2.5346083984375	0		1.5089813232421876	-0.7159619140625	0		3.085272216796875	-0.05035022735595703	0		4.5248828125	0.1916632080078125	0		5.620177734375	0.11206934356689453	0		-0.17809739685058593	5.93262451171875	0		
0.007075777053833008	0.007712156772613526	0		0.49564874267578124	-2.4144541015625	0		-1.048765869140625	0.08168864440917968	0		-0.7196522216796875	-2.531644287109375	0		1.5083123779296874	-0.7163692016601563	0		3.1207529296875	-0.03822172164916992	0		4.53099853515625	0.18548417663574218	0		5.615505859375	0.12966145324707032	0		-0.17954458618164063	5.93202001953125	0		
0.003271519899368286	0.004197690963745117	0		0.4931535339355469	-2.416927734375	0		-1.0535966796875	0.0770651626586914	0		-0.6522515258789062	-2.54151220703125	0		1.54553515625	-0.72343408203125	0		3.093904541015625	-0.043950801849365236	0		4.515353515625	0.19272640991210938	0		5.614986328125	0.12982478332519531	0		-0.1952024841308594	5.9206806640625	0		
-0.0015426419973373414	-2.811700105667114E-4	0		0.4896325378417969	-2.421364990234375	0		-1.054349365234375	0.07638674926757813	0		-0.6876283569335937	-2.538522216796875	0		1.54487939453125	-0.723797607421875	0		3.084203125	-0.04196755218505859	0		4.5294599609375	0.1854580078125	0		5.61862353515625	0.11254708862304688	0		-0.314839599609375	5.91119873046875	0		
-0.002275376081466675	-8.104779720306397E-4	0		0.49122515869140626	-2.419870849609375	0		-1.05509130859375	0.07573114013671875	0		-0.66839404296875	-2.55848291015625	0		1.50327490234375	-0.7214200439453125	0		3.103173095703125	-0.05947604370117188	0		4.52667041015625	0.18350778198242187	0		5.6181171875	0.11277774810791015	0		-0.31631671142578127	5.9086318359375	0		
0.004127551078796387	0.005561026096343994	0		0.46791677856445313	-2.4129169921875	0		-1.1159144287109375	0.07015231323242188	0		-0.6976502685546875	-2.549560546875	0		1.5233582763671876	-0.7381129760742188	0		3.10284619140625	-0.03761970138549805	0		4.51619384765625	0.19870721435546876	0		5.620560546875	0.12501356506347655	0		-0.18436489868164063	5.92776171875	0		
0.0064779348373413086	0.008030756950378418	0		0.5193972778320313	-2.419243896484375	0		-1.052458984375	0.07843349456787109	0		-0.6759933471679688	-2.5465009765625	0		1.505092041015625	-0.718107421875	0		3.051862060546875	-0.053872249603271485	0		4.51236669921875	0.1927982177734375	0		5.61713720703125	0.11329074096679688	0		-0.18670816040039062	5.929279296875	0		
-3.054620027542114E-4	0.0016855870485305785	0		0.46095928955078125	-2.420635498046875	0		-1.0572159423828125	0.07393630218505859	0		-0.678425537109375	-2.548991455078125	0		1.501423095703125	-0.7223388061523438	0		3.099163818359375	-0.05581301498413086	0		4.51166552734375	0.19284733581542968	0		5.61666650390625	0.11356862640380859	0		-0.20223204040527343	5.91805126953125	0		
-9.625849723815917E-4	0.0012631269693374634	0		0.5134666748046876	-2.426917236328125	0		-1.0629486083984374	0.06948759460449219	0		-0.6917061157226563	-2.543263916015625	0		1.494723876953125	-0.729497314453125	0		3.08251513671875	-0.05563087463378906	0		4.51098779296875	0.19290553283691406	0		5.61327392578125	0.10186544036865235	0		-0.32169073486328126	5.9086328125	0		
-0.005662518978118897	-0.0030634560585021974	0		0.4601749877929687	-2.421357177734375	0		-1.063587890625	0.06898389434814453	0		-0.6812168579101563	-2.551916259765625	0		1.5031136474609375	-0.7328931274414062	0		3.10212451171875	-0.042054691314697266	0		4.51831787109375	0.19183421325683594	0		5.618712890625	0.12613538360595702	0		-0.32292568969726565	5.908205078125	0		
0.025846208572387695	0.003023492097854614	0		0.49561434936523435	-2.433289794921875	0		-1.0591331787109375	0.07242557525634766	0		-0.7124669189453126	-2.5458271484375	0		1.505630126953125	-0.73016650390625	0		3.086152099609375	-0.06386313247680664	0		4.51281298828125	0.19899049377441405	0		5.6153564453125	0.11443962097167969	0		-0.17658740234375	5.9373076171875	0		
2.711699903011322E-4	0.0031035430431365966	0		0.4614891662597656	-2.420015625	0		-1.0597183837890625	0.07198201751708984	0		-0.6778441772460938	-2.548827880859375	0		1.5460810546875	-0.7330594482421875	0		3.09083203125	-0.04900273132324219	0		4.5122158203125	0.1990716552734375	0		5.6107978515625	0.1322162628173828	0		-0.19289129638671876	5.92720166015625	0		
-0.00333121395111084	-1.656080037355423E-4	0		0.5198479614257813	-2.439280029296875	0		-1.065343505859375	0.06764970397949219	0		-0.68019677734375	-2.55117578125	0		1.495703369140625	-0.726400634765625	0		3.074286376953125	-0.04877202224731445	0		4.50854541015625	0.19321510314941406	0		5.6074794921875	0.12054147338867187	0		-0.19398497009277343	5.9268642578125	0		
-0.007925968170166015	-0.004396271228790283	0		0.48372457885742187	-2.4279326171875	0		-1.0817591552734376	0.07452323913574219	0		-0.6496196899414063	-2.5590498046875	0		1.530067626953125	-0.7371476440429687	0		3.07376220703125	-0.048796394348144534	0		4.51109912109375	0.199267333984375	0		5.6142099609375	0.1153955078125	0		-0.19504039001464843	5.92654931640625	0		
-0.008432544708251954	-0.0046738600730896	0		0.49229351806640625	-2.43631591796875	0		-1.0704400634765625	0.06395513153076172	0		-0.7069142456054688	-2.55943701171875	0		1.5035118408203125	-0.7438599243164062	0		3.084009033203125	-0.06398807144165039	0		4.50545947265625	0.1924642333984375	0		5.61385986328125	0.1157411880493164	0		-0.3463707275390625	5.90874658203125	0		
0.0012457629442214966	0.004901881217956543	0		0.47898092651367186	-2.43831689453125	0		-1.06181689453125	0.07045866394042968	0		-0.6573076171875	-2.567577880859375	0		1.5150869140625	-0.74418896484375	0		3.091072265625	-0.031106435775756835	0		4.50318896484375	0.20661630249023438	0		5.6164599609375	0.12809117126464845	0		-0.1818961486816406	5.93473291015625	0		
0.026777584075927733	0.004236982822418213	0		0.4958114929199219	-2.4327958984375	0		-1.0622869873046874	0.07013424682617188	0		-0.7033758544921875	-2.556115234375	0		1.5087989501953125	-0.7372059326171875	0		3.0723173828125	-0.04879453659057617	0		4.5057236328125	0.2076957244873047	0		5.61320458984375	0.11646244812011719	0		-0.1979895782470703	5.9257275390625	0		
-0.002711416006088257	0.0014938019514083862	0		0.4826269836425781	-2.4287646484375	0		-1.0718492431640625	0.06297878646850585	0		-0.6466090698242187	-2.556322509765625	0		1.53431201171875	-0.7437308959960938	0		3.071877685546875	-0.048771995544433594	0		4.50603466796875	0.19381681823730468	0		5.60873681640625	0.13430198669433593	0		-0.198900390625	5.9254921875	0		
-0.010250107765197754	-0.005594761848449707	0		0.49020538330078123	-2.440059814453125	0		-1.0881798095703126	0.06895391082763672	0		-0.7079141845703125	-2.560581298828125	0		1.4929808349609375	-0.7411509399414062	0		3.08745361328125	-0.049002693176269534	0		4.5055947265625	0.1939551544189453	0		5.61260546875	0.11720606994628906	0		-0.3321155700683594	5.9054248046875	0		
-0.006596727848052979	-0.0018491690158843994	0		0.49883935546875	-2.448357666015625	0		-1.0767596435546876	0.05849398040771484	0		-0.6711618041992188	-2.562420166015625	0		1.4985087890625	-0.7483278198242187	0		3.076290283203125	-0.03379207992553711	0		4.498267578125	0.2002044677734375	0		5.61232177734375	0.1175683822631836	0		-0.367045654296875	5.89976416015625	0		
-0.003947967052459716	9.268180131912231E-4	0		0.4648215026855469	-2.434951416015625	0		-1.145025146484375	0.06734141540527344	0		-0.704301025390625	-2.557109130859375	0		1.5071109619140626	-0.7515449829101563	0		3.0925361328125	-0.056027912139892576	0		4.50785302734375	0.20017588806152345	0		5.6108154296875	0.14738002014160156	0		-0.20141827392578124	5.9248828125	0		
-0.0012884689569473266	0.0037158830165863036	0		0.500409912109375	-2.446660400390625	0		-1.07941015625	0.0670445556640625	0		-0.6695760498046875	-2.560878662109375	0		1.500884765625	-0.7445137329101562	0		3.0803779296875	-0.041798316955566406	0		4.50745166015625	0.20030636596679688	0		5.60761328125	0.13572109985351563	0		-0.20219107055664062	5.92470751953125	0		
-0.004713174819946289	6.137830018997192E-4	0		0.48928146362304686	-2.440604736328125	0		-1.0779354248046875	0.057796676635742186	0		-0.67182666015625	-2.563038330078125	0		1.497490234375	-0.7485230102539062	0		3.085890869140625	-0.04885377883911133	0		4.499095703125	0.20256185913085936	0		5.611517578125	0.11858482360839843	0		-0.20293350219726564	5.924544921875	0		
-0.01218814182281494	-0.006414046764373779	0		0.5020899658203125	-2.438923583984375	0		-1.09014208984375	0.06778376770019531	0		-0.672041259765625	-2.563217529296875	0		1.4882186279296874	-0.7454325561523437	0		3.06953173828125	-0.04855859756469726	0		4.49668798828125	0.200716552734375	0		5.611265625	0.11889908599853516	0		-0.3511510314941406	5.89374072265625	0		
-0.008473562240600587	-0.00260967493057251	0		0.4795754699707031	-2.457675048828125	0		-1.078655029296875	0.05740377807617188	0		-0.696326171875	-2.568003173828125	0		1.503749755859375	-0.7557349853515625	0		3.07994580078125	-0.0636943702697754	0		4.48534521484375	0.2020064697265625	0		5.6139560546875	0.13119309997558593	0		-0.33569735717773436	5.90133544921875	0		
0.019241540908813477	-1.7622900009155274E-4	0		0.5094000244140625	-2.456248291015625	0		-1.0749241943359376	0.06116253280639648	0		-0.6544500122070313	-2.563826904296875	0		1.5055224609375	-0.7518125	0		3.087141845703125	-0.030774152755737305	0		4.51008203125	0.20671694946289063	0		5.6137275390625	0.13146949768066407	0		-0.20398037719726564	5.9221025390625	0		
0.001049921989440918	0.006994513988494873	0		0.4734070434570313	-2.4437705078125	0		-1.0752314453125	0.06099758148193359	0		-0.6546318359375	-2.5639716796875	0		1.543154541015625	-0.7584534301757813	0		3.068556884765625	-0.0484536018371582	0		4.48670751953125	0.2031827392578125	0		5.60641845703125	0.1371917724609375	0		-0.21970820617675782	5.91321728515625	0		
